<?xml version="1.0" standalone="no"?>
<!DOCTYPE svg PUBLIC "-//W3C//DTD SVG 20010904//EN"
 "http://www.w3.org/TR/2001/REC-SVG-20010904/DTD/svg10.dtd">
<svg version="1.0" xmlns="http://www.w3.org/2000/svg"
 width="225.000000pt" height="225.000000pt" viewBox="0 0 225.000000 225.000000"
 preserveAspectRatio="xMidYMid meet">
<metadata>
Created by potrace 1.14, written by Peter Selinger 2001-2017
</metadata>
<g transform="translate(0.000000,225.000000) scale(0.100000,-0.100000)"
fill="#000000" stroke="none">
<path d="M490 1668 l0 -518 33 -1 c247 -6 724 1 766 11 103 25 207 113 252
215 27 61 30 78 30 157 1 148 -78 270 -221 341 l-65 32 -257 3 -258 4 0 -267
0 -266 58 3 57 3 0 197 c0 108 3 200 7 204 5 4 86 7 182 6 205 0 249 -13 317
-90 115 -131 75 -330 -85 -415 -40 -21 -51 -22 -368 -23 l-328 -2 -1 32 c-1
32 -1 755 0 769 1 5 160 7 354 5 343 -3 354 -4 412 -27 214 -85 351 -269 360
-486 6 -141 -33 -259 -122 -369 -81 -100 -209 -174 -336 -194 -28 -4 -217 -8
-420 -7 l-367 0 0 -472 c0 -260 2 -473 5 -473 3 0 49 35 102 78 54 43 141 112
193 153 l95 75 0 199 0 199 -24 6 c-14 3 -40 4 -58 2 l-33 -4 0 -163 0 -164
-72 -59 c-40 -32 -77 -61 -83 -64 -7 -4 -9 90 -8 275 1 155 2 285 2 290 1 4
151 7 334 7 299 0 342 2 411 20 243 62 427 254 486 508 8 33 11 94 8 160 -8
178 -65 307 -194 437 -56 57 -90 81 -165 117 -52 25 -116 52 -144 59 -36 9
-165 13 -452 14 l-403 1 0 -518z"/>
</g>
</svg>
